<svg xmlns="http://www.w3.org/2000/svg" viewBox="0 0 64 64" id="mail"><path d="M59.19 9h-36.5a4.82 4.82 0 0 0-4.81 4.81V26H4.36A4.37 4.37 0 0 0 0 30.36v20.06a4.37 4.37 0 0 0 4.36 4.36h2.77v5.35a2 2 0 0 0 1.15 1.81 2 2 0 0 0 .85.19 2 2 0 0 0 1.27-.46l8.36-6.89H35a4.37 4.37 0 0 0 4.36-4.36v-5.26h2.79l10.06 8.29a2 2 0 0 0 2.13.26 2 2 0 0 0 1.14-1.81v-6.74h3.67A4.81 4.81 0 0 0 64 40.35V13.81A4.82 4.82 0 0 0 59.19 9ZM35.4 50.42a.36.36 0 0 1-.36.36H18a2 2 0 0 0-1.27.46l-5.64 4.65v-3.11a2 2 0 0 0-2-2H4.36a.36.36 0 0 1-.36-.36V30.36a.37.37 0 0 1 .36-.36h13.52v10.35a4.81 4.81 0 0 0 4.81 4.81H35.4ZM60 40.35a.81.81 0 0 1-.81.81h-5.67a2 2 0 0 0-2 2v4.5l-7.34-6a2 2 0 0 0-1.27-.46H22.69a.81.81 0 0 1-.81-.81V13.81a.81.81 0 0 1 .81-.81h36.5a.81.81 0 0 1 .81.81Z"></path><path d="M41.73 14a12.5 12.5 0 1 0-.23 25v-4a8.5 8.5 0 1 1 .16-17A8.72 8.72 0 0 1 50 26.85v3.65a1 1 0 0 1-2 0v-4a6.52 6.52 0 1 0-3.64 5.83A5 5 0 0 0 54 30.5v-3.65A12.74 12.74 0 0 0 41.73 14Zm-.23 15a2.5 2.5 0 1 1 2.5-2.5 2.5 2.5 0 0 1-2.5 2.5Z"></path></svg>